<svg width="126" height="70" viewBox="0 0 126 70" fill="none" xmlns="http://www.w3.org/2000/svg">
<path d="M121.146 69.3535C121.342 69.5488 121.658 69.5488 121.854 69.3535L125.036 66.1715C125.231 65.9763 125.231 65.6597 125.036 65.4644C124.84 65.2692 124.524 65.2692 124.328 65.4644L121.5 68.2929L118.672 65.4644C118.476 65.2692 118.16 65.2692 117.964 65.4644C117.769 65.6597 117.769 65.9763 117.964 66.1715L121.146 69.3535ZM1.0477 2.69187C43.7611 -1.4017 73.7559 3.07723 93.0561 14.6047C112.311 26.1048 121 44.6701 121 69H122C122 44.3996 113.189 25.465 93.5689 13.7462C73.9941 2.05474 43.7389 -2.40415 0.9523 1.69643L1.0477 2.69187Z" fill="#C4C4C4"/>
</svg>
